<svg width="308" height="353" viewBox="0 0 308 353" fill="none" xmlns="http://www.w3.org/2000/svg">
<path d="M132.774 231.595L149.992 204.622L96.046 170.187L78.8281 197.16L132.774 231.595ZM11.0269 303.375C1.51776 318.272 5.8853 338.057 20.7821 347.566C35.6789 357.075 55.4639 352.708 64.973 337.811L11.0269 303.375ZM78.8281 197.16L11.0269 303.375L64.973 337.811L132.774 231.595L78.8281 197.16Z" fill="white"/>
<circle cx="145.5" cy="159.5" r="70.5" fill="white"/>
<path d="M38.9994 77.7664C54.0461 6.64977 113.158 6.64977 131.429 86.7812C149.7 166.913 161.523 228.013 183.018 286.108C204.513 344.203 252.878 340.197 268.999 280.098" stroke="white" stroke-width="49"/>
<circle cx="35" cy="76.5054" r="35" fill="white"/>
<circle cx="273" cy="261.505" r="35" fill="white"/>
<circle cx="273.5" cy="261.5" r="22.5" fill="#424242"/>
<path d="M122.659 225.139L133.42 208.281L99.7042 186.758L88.943 203.616L122.659 225.139ZM21.1418 309.832C15.1986 319.142 17.9283 331.508 27.2388 337.451C36.5493 343.394 48.9149 340.665 54.8581 331.354L21.1418 309.832ZM88.943 203.616L21.1418 309.832L54.8581 331.354L122.659 225.139L88.943 203.616Z" fill="#00A6A6"/>
<path d="M171 159.505C171 173.312 159.807 184.505 146 184.505C132.193 184.505 121 173.312 121 159.505C121 145.698 132.193 134.505 146 134.505C159.807 134.505 171 145.698 171 159.505Z" fill="#424242"/>
<circle cx="34.5" cy="77.0054" r="22.5" fill="#424242"/>
<path fill-rule="evenodd" clip-rule="evenodd" d="M61.2162 53.3162C68.5508 41.3807 77.2722 37.6773 83.263 38.0337C93.3843 38.6358 110.413 50.8388 119.242 89.56C121.397 99.0128 123.467 108.222 125.477 117.211C131.678 114.196 138.642 112.505 146 112.505C147.376 112.505 148.739 112.565 150.085 112.68C148.011 103.41 145.864 93.8611 143.617 84.0023C134.174 42.5921 112.512 14.7294 84.7475 13.0778C65.7584 11.9482 49.9543 23.192 39.1526 41.7492C47.9046 42.7837 55.6672 47.0476 61.2162 53.3162ZM170.15 199.834C163.106 204.062 154.862 206.496 146.051 206.505C153.433 236.027 161.349 263.566 171.295 290.446C182.791 321.517 203.812 341.766 228.953 339.891C250.209 338.306 267.066 321.342 276.841 296.297C275.58 296.435 274.298 296.505 273 296.505C265.347 296.505 258.267 294.049 252.507 289.881C244.845 307.936 234.395 314.416 227.095 314.96C218.649 315.59 204.74 308.794 194.741 281.77C185.068 255.626 177.394 228.889 170.15 199.834Z" fill="#424242"/>
<path fill-rule="evenodd" clip-rule="evenodd" d="M146 219.505C179.137 219.505 206 192.642 206 159.505C206 126.368 179.137 99.5054 146 99.5054C112.863 99.5054 86 126.368 86 159.505C86 192.642 112.863 219.505 146 219.505ZM146 206.505C171.957 206.505 193 185.463 193 159.505C193 133.548 171.957 112.505 146 112.505C120.043 112.505 99 133.548 99 159.505C99 185.463 120.043 206.505 146 206.505Z" fill="#00A6A6"/>
</svg>
