<svg width="284" height="328" viewBox="0 0 284 328" fill="none" xmlns="http://www.w3.org/2000/svg">
<circle cx="261.5" cy="248.5" r="22.5" fill="#2d2f31"/>
<path d="M110.659 212.139L121.42 195.281L87.7042 173.758L76.943 190.616L110.659 212.139ZM9.14181 296.832C3.19859 306.142 5.9283 318.508 15.2388 324.451C24.5493 330.394 36.9149 327.665 42.8581 318.354L9.14181 296.832ZM76.943 190.616L9.14181 296.832L42.8581 318.354L110.659 212.139L76.943 190.616Z" fill="#00A6A6"/>
<path d="M159 146.505C159 160.312 147.807 171.505 134 171.505C120.193 171.505 109 160.312 109 146.505C109 132.698 120.193 121.505 134 121.505C147.807 121.505 159 132.698 159 146.505Z" fill="#2d2f31"/>
<circle cx="22.5" cy="64.0054" r="22.5" fill="#2d2f31"/>
<path fill-rule="evenodd" clip-rule="evenodd" d="M49.2162 40.3162C56.5508 28.3807 65.2722 24.6773 71.2629 25.0337C81.3843 25.6358 98.4131 37.8388 107.242 76.56C109.397 86.0128 111.467 95.2218 113.477 104.211C119.678 101.196 126.642 99.5054 134 99.5054C135.376 99.5054 136.739 99.5645 138.085 99.6804C136.011 90.4096 133.864 80.8611 131.616 71.0023C122.174 29.5921 100.512 1.72943 72.7474 0.0778313C53.7584 -1.05177 37.9543 10.192 27.1526 28.7492C35.9045 29.7837 43.6672 34.0476 49.2162 40.3162ZM158.15 186.834C151.106 191.062 142.862 193.496 134.051 193.505C141.433 223.027 149.349 250.566 159.295 277.446C170.791 308.517 191.812 328.766 216.953 326.891C238.209 325.306 255.066 308.342 264.841 283.297C263.58 283.435 262.298 283.505 261 283.505C253.347 283.505 246.267 281.049 240.507 276.881C232.845 294.936 222.395 301.416 215.094 301.96C206.649 302.59 192.74 295.794 182.741 268.77C173.068 242.626 165.394 215.889 158.15 186.834Z" fill="#2d2f31"/>
<path fill-rule="evenodd" clip-rule="evenodd" d="M134 206.505C167.137 206.505 194 179.642 194 146.505C194 113.368 167.137 86.5054 134 86.5054C100.863 86.5054 74 113.368 74 146.505C74 179.642 100.863 206.505 134 206.505ZM134 193.505C159.957 193.505 181 172.463 181 146.505C181 120.548 159.957 99.5054 134 99.5054C108.043 99.5054 87 120.548 87 146.505C87 172.463 108.043 193.505 134 193.505Z" fill="#00A6A6"/>
</svg>
